<?xml version="1.0" encoding="UTF-8" standalone="no"?>
<svg
   xmlns:dc="http://purl.org/dc/elements/1.1/"
   xmlns:cc="http://creativecommons.org/ns#"
   xmlns:rdf="http://www.w3.org/1999/02/22-rdf-syntax-ns#"
   xmlns:svg="http://www.w3.org/2000/svg"
   xmlns="http://www.w3.org/2000/svg"
   xmlns:sodipodi="http://sodipodi.sourceforge.net/DTD/sodipodi-0.dtd"
   xmlns:inkscape="http://www.inkscape.org/namespaces/inkscape"
   width="210mm"
   height="297mm"
   viewBox="0 0 210 297"
   version="1.1"
   id="svg1028"
   inkscape:version="1.0.1 (3bc2e813f5, 2020-09-07)"
   sodipodi:docname="Logo.svg">
  <defs
     id="defs1022" />
  <sodipodi:namedview
     id="base"
     pagecolor="#ffffff"
     bordercolor="#666666"
     borderopacity="1.0"
     inkscape:pageopacity="0.0"
     inkscape:pageshadow="2"
     inkscape:zoom="1.4142136"
     inkscape:cx="476.67263"
     inkscape:cy="750.7749"
     inkscape:document-units="mm"
     inkscape:current-layer="layer1"
     inkscape:document-rotation="0"
     showgrid="false"
     inkscape:window-width="1366"
     inkscape:window-height="745"
     inkscape:window-x="-8"
     inkscape:window-y="-8"
     inkscape:window-maximized="1" />
  <metadata
     id="metadata1025">
    <rdf:RDF>
      <cc:Work
         rdf:about="">
        <dc:format>image/svg+xml</dc:format>
        <dc:type
           rdf:resource="http://purl.org/dc/dcmitype/StillImage" />
        <dc:title></dc:title>
      </cc:Work>
    </rdf:RDF>
  </metadata>
  <g
     inkscape:label="Layer 1"
     inkscape:groupmode="layer"
     id="layer1">
    <g
       id="g2461"
       transform="translate(1.5875)">
      <rect
         style="fill:#112026;fill-opacity:1;fill-rule:evenodd;stroke:none;stroke-width:0.865;stroke-miterlimit:4;stroke-dasharray:none;stroke-opacity:1"
         id="rect1730"
         width="94.78447"
         height="104.51307"
         x="82.168732"
         y="148.04538" />
    </g>
    <g
       id="g2499"
       inkscape:export-xdpi="609.86389"
       inkscape:export-ydpi="609.86389">
      <path
         id="path1605-7-0-70"
         style="fill:none;fill-rule:evenodd;stroke:#ccb069;stroke-width:0.867426;stroke-miterlimit:4;stroke-dasharray:none;stroke-opacity:1"
         d="m 136.3581,196.95006 a 8.3520602,8.3520602 0 0 1 2.58029,6.03685 v 0 a 8.3520602,8.3520602 0 0 1 -8.35206,8.35206 8.3520602,8.3520602 0 0 1 -8.35206,-8.35206 8.3520602,8.3520602 0 0 1 2.57191,-6.02883" />
      <path
         id="path2435"
         style="fill:none;fill-rule:evenodd;stroke:#ccb069;stroke-width:0.867426;stroke-miterlimit:4;stroke-dasharray:none;stroke-opacity:1"
         d="m 125.60336,196.28416 a 8.3520602,8.3520602 0 0 1 4.98297,-1.64931 8.3520602,8.3520602 0 0 1 4.97345,1.64224" />
      <path
         id="path2431"
         style="fill:none;fill-rule:evenodd;stroke:#ccb069;stroke-width:0.867426;stroke-miterlimit:4;stroke-dasharray:none;stroke-opacity:1"
         d="m 138.92774,191.097 a 8.3520602,8.3520602 0 0 1 0.0119,-1e-5 8.3520602,8.3520602 0 0 1 8.35206,8.35206 8.3520602,8.3520602 0 0 1 -8.35206,8.35206 8.3520602,8.3520602 0 0 1 -8.35206,-8.35206 8.3520602,8.3520602 0 0 1 0.002,-0.1756" />
      <path
         id="path2427"
         style="fill:none;fill-rule:evenodd;stroke:#ccb069;stroke-width:0.867426;stroke-miterlimit:4;stroke-dasharray:none;stroke-opacity:1"
         d="m 130.67621,198.23526 a 8.3520602,8.3520602 0 0 1 7.21273,-7.07192" />
      <path
         id="path2423"
         style="fill:none;fill-rule:evenodd;stroke:#ccb069;stroke-width:0.867426;stroke-miterlimit:4;stroke-dasharray:none;stroke-opacity:1"
         d="m 136.63867,185.17502 a 8.3520602,8.3520602 0 0 1 6.03535,-2.57872 8.3520602,8.3520602 0 0 1 8.35206,8.35207 8.3520602,8.3520602 0 0 1 -8.35206,8.35206 8.3520602,8.3520602 0 0 1 -6.0606,-2.60523" />
      <path
         id="path2419"
         style="fill:none;fill-rule:evenodd;stroke:#ccb069;stroke-width:0.867426;stroke-miterlimit:4;stroke-dasharray:none;stroke-opacity:1"
         d="m 135.94332,195.89353 a 8.3520602,8.3520602 0 0 1 -1.62136,-4.94516 8.3520602,8.3520602 0 0 1 1.64319,-4.97474" />
      <path
         id="path2415"
         style="fill:none;fill-rule:evenodd;stroke:#ccb069;stroke-width:0.867426;stroke-miterlimit:4;stroke-dasharray:none;stroke-opacity:1"
         d="m 130.68674,182.57037 a 8.3520602,8.3520602 0 0 1 -9e-4,-0.12268 8.3520602,8.3520602 0 0 1 8.35206,-8.35206 8.3520602,8.3520602 0 0 1 8.35206,8.35206 8.3520602,8.3520602 0 0 1 -8.35206,8.35206 8.3520602,8.3520602 0 0 1 -0.10899,-7.1e-4" />
      <path
         id="path2411"
         style="fill:none;fill-rule:evenodd;stroke:#ccb069;stroke-width:0.867426;stroke-miterlimit:4;stroke-dasharray:none;stroke-opacity:1"
         d="m 137.88988,190.72047 a 8.3520602,8.3520602 0 0 1 -7.12283,-7.11092" />
      <path
         id="path2407"
         style="fill:none;fill-rule:evenodd;stroke:#ccb069;stroke-width:0.867426;stroke-miterlimit:4;stroke-dasharray:none;stroke-opacity:1"
         d="m 124.77832,184.9118 a 8.3520602,8.3520602 0 0 1 -2.54404,-6.00198 8.3520602,8.3520602 0 0 1 8.35206,-8.35206 8.3520602,8.3520602 0 0 1 8.35206,8.35206 8.3520602,8.3520602 0 0 1 -2.55241,6.01008" />
      <path
         id="path2403"
         style="fill:none;fill-rule:evenodd;stroke:#ccb069;stroke-width:0.867426;stroke-miterlimit:4;stroke-dasharray:none;stroke-opacity:1"
         d="m 135.59212,185.59555 a 8.3520602,8.3520602 0 0 1 -5.00578,1.66633 8.3520602,8.3520602 0 0 1 -5.01524,-1.67341" />
      <path
         id="path2399"
         style="fill:none;fill-rule:evenodd;stroke:#ccb069;stroke-width:0.867426;stroke-miterlimit:4;stroke-dasharray:none;stroke-opacity:1"
         d="m 122.22752,190.7494 a 8.3520602,8.3520602 0 0 1 -0.14188,0.001 8.3520602,8.3520602 0 0 1 -8.35206,-8.35206 8.3520602,8.3520602 0 0 1 8.35206,-8.35206 8.3520602,8.3520602 0 0 1 8.35206,8.35206 8.3520602,8.3520602 0 0 1 -0.002,0.17219" />
      <path
         id="path2395"
         style="fill:none;fill-rule:evenodd;stroke:#ccb069;stroke-width:0.867426;stroke-miterlimit:4;stroke-dasharray:none;stroke-opacity:1"
         d="m 130.34931,183.61045 a 8.3520602,8.3520602 0 0 1 -7.08139,7.05606" />
      <path
         id="path2391"
         style="fill:none;fill-rule:evenodd;stroke:#ccb069;stroke-width:0.867426;stroke-miterlimit:4;stroke-dasharray:none;stroke-opacity:1"
         d="m 125.25426,185.90486 a 8.3520602,8.3520602 0 0 1 1.69473,5.04351 8.3520602,8.3520602 0 0 1 -1.67188,5.01319" />
      <path
         id="path2387"
         style="fill:none;fill-rule:evenodd;stroke:#ccb069;stroke-width:0.867426;stroke-miterlimit:4;stroke-dasharray:none;stroke-opacity:1"
         d="m 124.60076,196.75448 a 8.3520602,8.3520602 0 0 1 -6.00383,2.54595 8.3520602,8.3520602 0 0 1 -8.35206,-8.35206 8.3520602,8.3520602 0 0 1 8.35206,-8.35207 8.3520602,8.3520602 0 0 1 5.97774,2.5191" />
      <path
         id="path2383"
         style="fill:none;fill-rule:evenodd;stroke:#ccb069;stroke-width:0.867426;stroke-miterlimit:4;stroke-dasharray:none;stroke-opacity:1"
         d="m 130.43464,199.27222 a 8.3520602,8.3520602 0 0 1 0.003,0.22597 8.3520602,8.3520602 0 0 1 -8.35206,8.35206 8.3520602,8.3520602 0 0 1 -8.35206,-8.35206 8.3520602,8.3520602 0 0 1 8.35206,-8.35207 8.3520602,8.3520602 0 0 1 0.14307,0.001" />
      <path
         id="path2379"
         style="fill:none;fill-rule:evenodd;stroke:#ccb069;stroke-width:0.867426;stroke-miterlimit:4;stroke-dasharray:none;stroke-opacity:1"
         d="m 123.26942,191.23044 a 8.3520602,8.3520602 0 0 1 7.07187,7.00236" />
    </g>
    <text
       xml:space="preserve"
       style="font-style:normal;font-variant:normal;font-weight:bold;font-stretch:normal;font-size:12.7px;line-height:1.25;font-family:Harrington;-inkscape-font-specification:'Harrington Bold';letter-spacing:0.232833px;word-spacing:0px;fill:#ccb069;fill-opacity:1;stroke:none;stroke-width:0.264583;stroke-opacity:1"
       x="99.066185"
       y="222.78998"
       id="text1702"><tspan
         sodipodi:role="line"
         id="tspan1700"
         x="99.066185"
         y="222.78998"
         style="font-style:normal;font-variant:normal;font-weight:bold;font-stretch:normal;font-size:12.7px;font-family:Harrington;-inkscape-font-specification:'Harrington Bold';fill:#ccb069;fill-opacity:1;stroke:none;stroke-width:0.264583;stroke-opacity:1">KVS Hotels</tspan></text>
  </g>
</svg>
